<?xml version="1.0" encoding="utf-8"?><svg xmlns="http://www.w3.org/2000/svg" xmlns:xlink="http://www.w3.org/1999/xlink"  preserveAspectRatio="xMidYMid" viewBox="0 0 1440 692" style="z-index:1;shape-rendering:crispedges;margin-right:-2px;display:block;background-repeat-y:initial;background-repeat-x:initial;background-color:rgb(255, 255, 255);animation-play-state:paused" ><g transform="translate(720,346) scale(1,1) translate(-720,-346)" style="transform:matrix(1, 0, 0, 1, 0, 0);animation-play-state:paused" ><linearGradient id="lg-0.5016414146189305" x1="0" x2="1" y1="0" y2="0" style="animation-play-state:paused" ><stop stop-color="#ff00ff" offset="0" style="animation-play-state:paused" ></stop>

  
<stop stop-color="#00ffff" offset="1" style="animation-play-state:paused" ></stop></linearGradient>
<path d="M 0 0 L 0 638.957 Q 144 603.165 288 569.572 T 576 507.987 T 864 413.41 T 1152 325.365 T 1440 329.063 L 1440 0 Z" fill="url(#lg-0.5016414146189305)" opacity="0.4" style="opacity:0.4;animation-play-state:paused" ></path>
<path d="M 0 0 L 0 603.888 Q 144 600.822 288 563.966 T 576 539.446 T 864 418.278 T 1152 362.742 T 1440 351.359 L 1440 0 Z" fill="url(#lg-0.5016414146189305)" opacity="0.4" style="opacity:0.4;animation-play-state:paused" ></path>
<path d="M 0 0 L 0 569.93 Q 144 586.524 288 558.58 T 576 496.417 T 864 411.201 T 1152 417.254 T 1440 362.95 L 1440 0 Z" fill="url(#lg-0.5016414146189305)" opacity="0.4" style="opacity:0.4;animation-play-state:paused" ></path>
<path d="M 0 0 L 0 664.81 Q 144 575.118 288 556.542 T 576 487.162 T 864 459.417 T 1152 376.107 T 1440 354.081 L 1440 0 Z" fill="url(#lg-0.5016414146189305)" opacity="0.4" style="opacity:0.4;animation-play-state:paused" ></path>
<path d="M 0 0 L 0 612.75 Q 144 635.526 288 608.482 T 576 469.863 T 864 412.847 T 1152 363.95 T 1440 233.074 L 1440 0 Z" fill="url(#lg-0.5016414146189305)" opacity="0.4" style="opacity:0.4;animation-play-state:paused" ></path></g></svg>